<svg width="173" height="78" viewBox="0 0 173 78" fill="none" xmlns="http://www.w3.org/2000/svg">
<path d="M39.0002 0V11.55C38.6502 11.55 38.2502 11.55 37.9002 11.55C37.6002 11.55 37.3002 11.55 37.0002 11.55V0H39.0002Z" fill="#21B7D8"/>
<path d="M37.9002 64.8999C38.2502 64.8999 38.6502 64.8999 39.0002 64.8999V77.9999H37.0002V64.8499C37.3002 64.8999 37.6002 64.8999 37.9002 64.8999Z" fill="#21B7D8"/>
<path d="M11.25 37C11.25 37.4 11.2 37.8 11.2 38.2C11.2 38.45 11.2 38.7 11.2 39H0V37H11.25Z" fill="#21B7D8"/>
<path d="M37.9001 16.7C49.7501 16.7 59.4501 26.35 59.4501 38.25C59.4501 50.15 49.8001 59.8 37.9001 59.8C26.0501 59.8 16.3501 50.15 16.3501 38.25C16.3501 26.35 26.0001 16.7 37.9001 16.7ZM37.9001 14.7C24.9001 14.7 14.3501 25.25 14.3501 38.25C14.3501 51.25 24.9001 61.8 37.9001 61.8C50.9001 61.8 61.4501 51.25 61.4501 38.25C61.4001 25.2 50.9001 14.7 37.9001 14.7Z" fill="#21B7D8"/>
<path d="M37.9002 25.2C45.0502 25.2 50.9002 31.05 50.9002 38.2C50.9002 45.35 45.0502 51.2 37.9002 51.2C30.7502 51.2 24.9001 45.35 24.9001 38.2C24.9001 31.05 30.7002 25.2 37.9002 25.2ZM37.9002 23.2C29.6001 23.2 22.9001 29.9 22.9001 38.2C22.9001 46.5 29.6001 53.2 37.9002 53.2C46.2002 53.2 52.9002 46.5 52.9002 38.2C52.9002 29.9 46.1502 23.2 37.9002 23.2Z" fill="#21B7D8"/>
<path d="M37.8 44.25C41.15 44.25 43.8 41.55 43.8 38.25C43.8 34.9 41.1 32.25 37.8 32.25C34.45 32.25 31.8 34.95 31.8 38.25C31.75 41.55 34.45 44.25 37.8 44.25Z" fill="#21B7D8"/>
<path d="M73.7002 41.3V49.1H72.6002V42.3H68.1002V49.15H67.0002V41.3H73.7002Z" fill="#21B7D8"/>
<path d="M77.5502 48.7C76.9002 48.35 76.4002 47.9 76.0502 47.25C75.7002 46.65 75.5002 45.95 75.5002 45.2C75.5002 44.45 75.7002 43.75 76.0502 43.15C76.4002 42.55 76.9002 42.05 77.5502 41.7C78.2002 41.35 78.9002 41.2 79.7002 41.2C80.5002 41.2 81.2002 41.35 81.8002 41.7C82.4502 42.05 82.9502 42.5 83.3002 43.15C83.6502 43.75 83.8502 44.45 83.8502 45.2C83.8502 45.95 83.6502 46.65 83.3002 47.25C82.9502 47.85 82.4502 48.35 81.8002 48.7C81.1502 49.05 80.4502 49.2 79.7002 49.2C78.8502 49.2 78.1502 49.05 77.5502 48.7ZM81.2002 47.8C81.6502 47.55 82.0002 47.2 82.3002 46.7C82.5502 46.25 82.7002 45.75 82.7002 45.15C82.7002 44.6 82.5502 44.05 82.3002 43.6C82.0502 43.1499 81.7002 42.8 81.2002 42.5C80.7502 42.25 80.2502 42.0999 79.6502 42.0999C79.1002 42.0999 78.5502 42.25 78.1002 42.5C77.6502 42.75 77.2502 43.0999 77.0002 43.6C76.7502 44.05 76.6002 44.55 76.6002 45.15C76.6002 45.7 76.7502 46.25 77.0002 46.7C77.2502 47.15 77.6502 47.5 78.1002 47.8C78.5502 48.05 79.1002 48.2 79.6502 48.2C80.2502 48.2 80.7502 48.1 81.2002 47.8Z" fill="#21B7D8"/>
<path d="M92.8003 48.1499V50.7999H91.7503V49.0999H85.3503V50.7999H84.3003V48.1499H84.7003C85.2003 48.0999 85.5503 47.7499 85.7503 46.9999C85.9503 46.2499 86.0503 45.1999 86.1003 43.8499L86.2003 41.3499H91.7003V48.1999H92.8003V48.1499ZM86.8003 46.6499C86.6503 47.3499 86.4503 47.8499 86.1503 48.1499H90.5503V42.2999H87.1503L87.1003 43.9499C87.0503 44.9999 86.9503 45.9499 86.8003 46.6499Z" fill="#21B7D8"/>
<path d="M100.05 45.7H98.4003V49.15H97.3003V41.3H98.4003V44.7H100.05L102.5 41.3H103.7L100.9 45.1L103.8 49.1H102.55L100.05 45.7Z" fill="#21B7D8"/>
<path d="M106.35 48.7C105.7 48.35 105.2 47.9 104.85 47.25C104.5 46.65 104.3 45.95 104.3 45.2C104.3 44.45 104.5 43.75 104.85 43.15C105.2 42.55 105.7 42.05 106.35 41.7C107 41.35 107.7 41.2 108.5 41.2C109.3 41.2 110 41.35 110.6 41.7C111.25 42.05 111.75 42.5 112.1 43.15C112.45 43.75 112.65 44.45 112.65 45.2C112.65 45.95 112.45 46.65 112.1 47.25C111.75 47.85 111.25 48.35 110.6 48.7C109.95 49.05 109.25 49.2 108.5 49.2C107.7 49.2 107 49.05 106.35 48.7ZM110.05 47.8C110.5 47.55 110.85 47.2 111.15 46.7C111.4 46.25 111.55 45.75 111.55 45.15C111.55 44.6 111.4 44.05 111.15 43.6C110.9 43.1499 110.55 42.8 110.05 42.5C109.6 42.25 109.1 42.0999 108.5 42.0999C107.95 42.0999 107.4 42.25 106.95 42.5C106.5 42.75 106.1 43.0999 105.85 43.6C105.6 44.05 105.45 44.55 105.45 45.15C105.45 45.7 105.6 46.25 105.85 46.7C106.1 47.15 106.5 47.5 106.95 47.8C107.4 48.05 107.95 48.2 108.5 48.2C109.05 48.2 109.6 48.1 110.05 47.8Z" fill="#21B7D8"/>
<path d="M121.15 41.3V49.1H120.05V45.6H115.55V49.1H114.45V41.3H115.55V44.6501H120.05V41.3H121.15Z" fill="#21B7D8"/>
<path d="M128.95 42.2999H126.3V49.1499H125.2V42.2999H122.5V41.3499H128.95V42.2999Z" fill="#21B7D8"/>
<path d="M135.7 42.05C136.3 42.55 136.55 43.2 136.55 44.05C136.55 44.9 136.25 45.55 135.7 46.05C135.1 46.55 134.35 46.75 133.3 46.75H131.35V49.1H130.25V41.3H133.3C134.35 41.3 135.15 41.55 135.7 42.05ZM134.9 45.35C135.25 45.05 135.45 44.6 135.45 44.05C135.45 43.5 135.25 43.05 134.9 42.75C134.55 42.45 134 42.3 133.3 42.3H131.4V45.8H133.3C134 45.8 134.55 45.65 134.9 45.35Z" fill="#21B7D8"/>
<path d="M139.65 48.7C139 48.35 138.5 47.9 138.15 47.25C137.8 46.65 137.6 45.95 137.6 45.2C137.6 44.45 137.8 43.75 138.15 43.15C138.5 42.55 139 42.05 139.65 41.7C140.3 41.35 141 41.2 141.8 41.2C142.6 41.2 143.3 41.35 143.9 41.7C144.55 42.05 145.05 42.5 145.4 43.15C145.75 43.8 145.95 44.45 145.95 45.2C145.95 45.95 145.75 46.65 145.4 47.25C145.05 47.85 144.55 48.35 143.9 48.7C143.25 49.05 142.55 49.2 141.8 49.2C140.95 49.2 140.25 49.05 139.65 48.7ZM143.3 47.8C143.75 47.55 144.1 47.2 144.4 46.7C144.65 46.25 144.8 45.75 144.8 45.15C144.8 44.6 144.65 44.05 144.4 43.6C144.15 43.1499 143.8 42.8 143.3 42.5C142.85 42.25 142.35 42.0999 141.75 42.0999C141.2 42.0999 140.65 42.25 140.2 42.5C139.75 42.75 139.35 43.0999 139.1 43.6C138.85 44.05 138.7 44.55 138.7 45.15C138.7 45.7 138.85 46.25 139.1 46.7C139.35 47.15 139.75 47.5 140.2 47.8C140.65 48.05 141.2 48.2 141.75 48.2C142.35 48.2 142.85 48.1 143.3 47.8Z" fill="#21B7D8"/>
<path d="M153.85 41.3V49.1H152.75V42.3H149.3L149.2 44.6C149.15 45.7 149.05 46.55 148.95 47.2C148.8 47.85 148.6 48.35 148.3 48.7C148 49.05 147.6 49.2 147.1 49.2C146.85 49.2 146.65 49.15 146.4 49.1L146.5 48.1C146.6 48.15 146.75 48.15 146.85 48.15C147.15 48.15 147.45 48 147.6 47.75C147.8 47.5 147.95 47.1 148.05 46.6C148.15 46.1 148.2 45.4 148.25 44.55L148.35 41.25H153.85V41.3Z" fill="#21B7D8"/>
<path d="M161.95 48.1501V49.1H156.3V41.3H161.8V42.25H157.4V44.6501H161.3V45.6H157.4V48.1H161.95V48.1501Z" fill="#21B7D8"/>
<path d="M170.95 49.1V43.4001L168.15 48.1501H167.65L164.85 43.4501V49.1H163.8V41.3H164.7L167.95 46.8L171.15 41.3H172.05V49.1H170.95Z" fill="#21B7D8"/>
<path d="M67.0002 27.3H73.3503V28.3H68.2002V30.7001H70.8003C71.8003 30.7001 72.5502 30.9 73.1002 31.3C73.6003 31.7 73.9003 32.3 73.9003 33.1C73.9003 33.9 73.6003 34.5501 73.0503 35.0001C72.5003 35.4501 71.7003 35.6501 70.6502 35.6501H67.0002V27.3ZM70.5503 34.7501C71.2503 34.7501 71.7502 34.6 72.1002 34.35C72.4502 34.1 72.6503 33.7001 72.6503 33.2001C72.6503 32.2001 71.9503 31.7001 70.5503 31.7001H68.2002V34.8001H70.5503V34.7501Z" fill="#21B7D8"/>
<path d="M81.9005 34.6501V35.7001H75.8005V27.3H81.7505V28.3501H77.0005V30.9501H81.2005V31.9501H77.0005V34.6501H81.9005Z" fill="#21B7D8"/>
<path d="M89.0507 32.1001C89.3507 32.4501 89.5007 32.9001 89.5007 33.4001C89.5007 33.9001 89.3507 34.3501 89.0507 34.7001C88.7507 35.0501 88.3007 35.3501 87.8007 35.5501C87.3007 35.7501 86.7007 35.8501 86.1007 35.8501C85.5507 35.8501 85.0007 35.7501 84.4507 35.6001C83.9007 35.4501 83.4007 35.2001 82.9507 34.8501L83.3507 33.9501C83.7007 34.2501 84.1507 34.4501 84.6007 34.6001C85.0507 34.7501 85.5007 34.8001 86.0007 34.8001C86.6507 34.8001 87.2507 34.6501 87.7007 34.3501C88.1507 34.0501 88.4007 33.7001 88.4007 33.2001C88.4007 32.8001 88.2507 32.4501 87.9007 32.2001C87.5507 31.9501 87.0507 31.8501 86.4507 31.8501H84.6007V30.9001H86.4007C86.9507 30.9001 87.3507 30.8001 87.6507 30.5501C87.9507 30.3501 88.1007 30.0001 88.1007 29.6501C88.1007 29.2001 87.9007 28.8501 87.5007 28.6001C87.1007 28.3501 86.6007 28.2001 86.0007 28.2001C85.6007 28.2001 85.2007 28.2501 84.8007 28.3501C84.4007 28.4501 84.0007 28.6501 83.6507 28.8501L83.2507 27.8501C83.6507 27.6001 84.1007 27.4501 84.6007 27.3001C85.0507 27.2001 85.5507 27.1001 86.0007 27.1001C86.6007 27.1001 87.1507 27.2001 87.6507 27.4001C88.1507 27.6001 88.5507 27.8501 88.8507 28.2001C89.1507 28.5501 89.3007 28.9501 89.3007 29.4501C89.3007 29.8501 89.2007 30.2501 88.9507 30.5501C88.7007 30.8501 88.4007 31.1001 87.9507 31.2501C88.3507 31.5001 88.7507 31.7501 89.0507 32.1001Z" fill="#21B7D8"/>
<path d="M93.0005 35.2502C92.3005 34.9002 91.8005 34.3502 91.4005 33.7002C91.0005 33.0502 90.8005 32.3002 90.8005 31.5002C90.8005 30.7002 91.0005 29.9502 91.4005 29.3002C91.8005 28.6502 92.3005 28.1502 93.0005 27.7502C93.7005 27.3502 94.4505 27.2002 95.3005 27.2002C96.1505 27.2002 96.9005 27.4002 97.6005 27.7502C98.3005 28.1002 98.8005 28.6502 99.2005 29.3002C99.6005 29.9502 99.8005 30.7002 99.8005 31.5002C99.8005 32.3002 99.6005 33.0502 99.2005 33.7002C98.8005 34.3502 98.3005 34.8502 97.6005 35.2502C96.9005 35.6002 96.1505 35.8002 95.3005 35.8002C94.4505 35.8002 93.7005 35.6502 93.0005 35.2502ZM96.9505 34.3002C97.4505 34.0002 97.8505 33.6502 98.1005 33.1502C98.4005 32.6502 98.5505 32.1002 98.5505 31.5002C98.5505 30.9002 98.4005 30.3502 98.1005 29.8502C97.8005 29.3502 97.4505 28.9502 96.9505 28.7002C96.4505 28.4002 95.9005 28.3002 95.3005 28.3002C94.7005 28.3002 94.1505 28.4502 93.6505 28.7002C93.1505 29.0002 92.7505 29.3502 92.4505 29.8502C92.1505 30.3502 92.0005 30.9002 92.0005 31.5002C92.0005 32.1002 92.1505 32.6502 92.4505 33.1502C92.7505 33.6502 93.1505 34.0502 93.6505 34.3002C94.1505 34.6002 94.7005 34.7002 95.3005 34.7002C95.9005 34.7002 96.5005 34.6002 96.9505 34.3002Z" fill="#21B7D8"/>
<path d="M108.95 27.3V35.7001H107.75V28.3501H102.9V35.7001H101.7V27.3H108.95Z" fill="#21B7D8"/>
<path d="M117.05 33.6H112.6L111.7 35.7001H110.45L114.25 27.3H115.45L119.25 35.7001H118L117.05 33.6ZM116.65 32.6501L114.85 28.55L113.05 32.6501H116.65Z" fill="#21B7D8"/>
<path d="M122.1 35.25C121.4 34.9 120.9 34.35 120.5 33.7C120.1 33.05 119.9 32.3 119.9 31.5C119.9 30.7 120.1 29.9499 120.5 29.2999C120.9 28.6499 121.4 28.15 122.1 27.75C122.8 27.4 123.55 27.2 124.4 27.2C125.05 27.2 125.65 27.2999 126.2 27.5499C126.75 27.7499 127.2 28.0999 127.6 28.5499L126.8 29.2999C126.15 28.6499 125.4 28.2999 124.45 28.2999C123.85 28.2999 123.25 28.45 122.75 28.7C122.25 29 121.85 29.35 121.55 29.85C121.25 30.35 121.1 30.9 121.1 31.5C121.1 32.1 121.25 32.65 121.55 33.15C121.85 33.65 122.25 34.0499 122.75 34.2999C123.25 34.5999 123.8 34.7 124.45 34.7C125.4 34.7 126.15 34.35 126.8 33.7L127.6 34.45C127.2 34.9 126.75 35.2 126.2 35.45C125.65 35.65 125.05 35.7999 124.4 35.7999C123.5 35.7999 122.75 35.65 122.1 35.25Z" fill="#21B7D8"/>
<path d="M136.45 27.3V35.7001H135.25V31.9501H130.45V35.7001H129.25V27.3H130.45V30.9001H135.25V27.3H136.45Z" fill="#21B7D8"/>
<path d="M140.6 35.2502C139.9 34.9002 139.4 34.3502 139 33.7002C138.6 33.0502 138.4 32.3002 138.4 31.5002C138.4 30.7002 138.6 29.9502 139 29.3002C139.4 28.6502 139.9 28.1502 140.6 27.7502C141.3 27.4002 142.05 27.2002 142.9 27.2002C143.75 27.2002 144.5 27.4002 145.2 27.7502C145.9 28.1002 146.4 28.6502 146.8 29.3002C147.2 29.9502 147.4 30.7002 147.4 31.5002C147.4 32.3002 147.2 33.0502 146.8 33.7002C146.4 34.3502 145.9 34.8502 145.2 35.2502C144.5 35.6002 143.75 35.8002 142.9 35.8002C142.05 35.8002 141.25 35.6502 140.6 35.2502ZM144.55 34.3002C145.05 34.0002 145.45 33.6502 145.7 33.1502C146 32.6502 146.15 32.1002 146.15 31.5002C146.15 30.9002 146 30.3502 145.7 29.8502C145.4 29.3502 145.05 28.9502 144.55 28.7002C144.05 28.4002 143.5 28.3002 142.9 28.3002C142.3 28.3002 141.75 28.4502 141.25 28.7002C140.75 29.0002 140.35 29.3502 140.05 29.8502C139.75 30.3502 139.6 30.9002 139.6 31.5002C139.6 32.1002 139.75 32.6502 140.05 33.1502C140.35 33.6502 140.75 34.0502 141.25 34.3002C141.75 34.6002 142.3 34.7002 142.9 34.7002C143.5 34.7002 144.05 34.6002 144.55 34.3002Z" fill="#21B7D8"/>
<path d="M150.8 35.25C150.1 34.9 149.6 34.35 149.2 33.7C148.8 33.05 148.6 32.3 148.6 31.5C148.6 30.7 148.8 29.9499 149.2 29.2999C149.6 28.6499 150.1 28.15 150.8 27.75C151.5 27.4 152.25 27.2 153.1 27.2C153.75 27.2 154.35 27.2999 154.9 27.5499C155.45 27.7499 155.9 28.0999 156.3 28.5499L155.5 29.2999C154.85 28.6499 154.1 28.2999 153.15 28.2999C152.55 28.2999 151.95 28.45 151.45 28.7C150.95 29 150.55 29.35 150.25 29.85C149.95 30.35 149.8 30.9 149.8 31.5C149.8 32.1 149.95 32.65 150.25 33.15C150.55 33.65 150.95 34.0499 151.45 34.2999C151.95 34.5999 152.5 34.7 153.15 34.7C154.1 34.7 154.85 34.35 155.5 33.7L156.3 34.45C155.9 34.9 155.45 35.2 154.9 35.45C154.35 35.65 153.75 35.7999 153.1 35.7999C152.2 35.7999 151.45 35.65 150.8 35.25Z" fill="#21B7D8"/>
<path d="M163.6 28.3501H160.7V35.7001H159.5V28.3501H156.65V27.3H163.55V28.3501H163.6Z" fill="#21B7D8"/>
<path d="M171.1 30.9001C171.65 31.35 171.9 32.0001 171.9 32.9001C171.9 33.8001 171.6 34.5001 171.05 35.0001C170.5 35.5001 169.65 35.7001 168.6 35.7001H165.15V27.3H166.35V30.2501H168.85C169.8 30.2501 170.55 30.45 171.1 30.9001ZM170.15 34.3001C170.5 34.0001 170.7 33.5501 170.7 32.9501C170.7 31.8001 170 31.2001 168.55 31.2001H166.3V34.8001H168.55C169.25 34.7501 169.75 34.6001 170.15 34.3001Z" fill="#21B7D8"/>
<path d="M15.9499 63.1999C16.7999 63.1999 17.4999 62.4999 17.4999 61.6499C17.4999 60.7999 16.7999 60.0999 15.9499 60.0999C15.0999 60.0999 14.3999 60.7999 14.3999 61.6499C14.3999 62.4999 15.0499 63.1999 15.9499 63.1999Z" fill="#DB0404"/>
</svg>
