<svg width="543" height="341" viewBox="0 0 543 341" fill="none" xmlns="http://www.w3.org/2000/svg">
<path d="M349.5 7.99994C351.4 7.99994 353 6.69995 353.4 4.99994H395.6L412.1 21.4H476.6L488.2 9.79996H537.5V294.8C535.8 295.2 534.5 296.8 534.5 298.7C534.5 300.9 536.3 302.7 538.5 302.7C540.7 302.7 542.5 300.9 542.5 298.7C542.5 296.8 541.2 295.2 539.5 294.8V7.79996H487.4L475.7 19.4H412.9L396.5 2.99994H353.4C353 1.29993 351.4 -6.10352e-05 349.5 -6.10352e-05C347.3 -6.10352e-05 345.5 1.79993 345.5 3.99994C345.5 6.19995 347.2 7.99994 349.5 7.99994Z" fill="#707070" fill-opacity="0.8"/>
<path d="M339.6 27.5999C341.6 27.5999 343.3 26.0999 343.6 24.0999H382.5L404.4 45.9999H487.9L501.4 32.4999H512.6V332.3C510.9 332.7 509.6 334.3 509.6 336.2C509.6 338.4 511.4 340.2 513.6 340.2C515.8 340.2 517.6 338.4 517.6 336.2C517.6 334.3 516.3 332.7 514.6 332.3V30.5999H500.6L487.1 44.0999H405.2L383.3 22.2H343.4C342.8 20.7 341.4 19.5999 339.6 19.5999C337.4 19.5999 335.6 21.3999 335.6 23.5999C335.6 25.8 337.4 27.5999 339.6 27.5999Z" fill="#707070" fill-opacity="0.8"/>
<path d="M4 18.7998C5.90002 18.7998 7.5 17.4998 7.90002 15.7998H389.8L407.5 33.3998H483.9L496.5 20.7998H525.8V310.4C524.1 310.8 522.8 312.4 522.8 314.3C522.8 316.5 524.6 318.3 526.8 318.3C529 318.3 530.8 316.5 530.8 314.3C530.8 312.4 529.5 310.8 527.8 310.4V18.7998H495.7L483.1 31.3998H408.3L390.6 13.6998H7.90002C7.5 11.9998 5.90002 10.6998 4 10.6998C1.79999 10.6998 0 12.4998 0 14.6998C0 16.8998 1.79999 18.7998 4 18.7998Z" fill="#707070" fill-opacity="0.8"/>
</svg>
