<svg width="250" height="83" viewBox="0 0 250 83" fill="none" xmlns="http://www.w3.org/2000/svg">
<path d="M56.5 74.3001C58.4 74.3001 60 75.6001 60.4 77.3001H102.6L119.1 60.9001H183.6L195.2 72.5001H244.5V23.5001C242.8 23.1001 241.5 21.5001 241.5 19.6001C241.5 17.4001 243.3 15.6001 245.5 15.6001C247.7 15.6001 249.5 17.4001 249.5 19.6001C249.5 21.5001 248.2 23.1001 246.5 23.5001V74.5001H194.4L182.7 62.9001H119.9L103.5 79.3001H60.4C60 81.0001 58.4 82.3001 56.5 82.3001C54.3 82.3001 52.5 80.5001 52.5 78.3001C52.5 76.1001 54.2 74.3001 56.5 74.3001Z" fill="#707070" fill-opacity="0.5"/>
<path d="M46.6001 54.7001C48.6001 54.7001 50.3001 56.2001 50.6001 58.2001H89.5001L111.4 36.3001H194.9L208.4 49.8001H219.6V16.0001C217.9 15.6001 216.6 14.0001 216.6 12.1001C216.6 9.9001 218.4 8.1001 220.6 8.1001C222.8 8.1001 224.6 9.9001 224.6 12.1001C224.6 14.0001 223.3 15.6001 221.6 16.0001V51.7001H207.6L194.1 38.2001H112.2L90.3001 60.1001H50.4001C49.8001 61.6001 48.4001 62.7001 46.6001 62.7001C44.4001 62.7001 42.6001 60.9001 42.6001 58.7001C42.6001 56.5001 44.4001 54.7001 46.6001 54.7001Z" fill="#707070" fill-opacity="0.5"/>
<path d="M4.00003 63.5C5.90002 63.5 7.50003 64.8 7.90002 66.5H96.8L114.5 48.9H190.9L203.5 61.5H232.8V7.9C231.1 7.5 229.8 5.9 229.8 4C229.8 1.8 231.6 0 233.8 0C236 0 237.8 1.8 237.8 4C237.8 5.9 236.5 7.5 234.8 7.9V63.5H202.7L190.1 50.9H115.3L97.6001 68.6H7.90002C7.50003 70.3 5.90002 71.6 4.00003 71.6C1.80003 71.6 3.05176e-05 69.8 3.05176e-05 67.6C3.05176e-05 65.4 1.80003 63.5 4.00003 63.5Z" fill="#707070" fill-opacity="0.5"/>
</svg>
