<svg width="260" height="83" viewBox="0 0 260 83" fill="none" xmlns="http://www.w3.org/2000/svg">
<path d="M193 7.99995C191.1 7.99995 189.5 6.69995 189.1 4.99995H146.9L130.4 21.4H65.9L54.3 9.79995H5V58.8C6.7 59.2 8 60.8 8 62.7C8 64.9 6.2 66.7 4 66.7C1.8 66.7 0 64.9 0 62.7C0 60.8 1.3 59.2 3 58.8V7.79995H55.1L66.8 19.4H129.6L146 2.99995H189.1C189.5 1.29995 191.1 -4.57764e-05 193 -4.57764e-05C195.2 -4.57764e-05 197 1.79995 197 3.99995C197 6.19995 195.3 7.99995 193 7.99995Z" fill="#707070" fill-opacity="0.5"/>
<path d="M202.9 27.5999C200.9 27.5999 199.2 26.0999 198.9 24.0999H160L138.1 46H54.5999L41.0999 32.5H29.8999V66.3C31.5999 66.7 32.8999 68.3 32.8999 70.2C32.8999 72.4 31.0999 74.2 28.8999 74.2C26.6999 74.2 24.8999 72.4 24.8999 70.2C24.8999 68.3 26.1999 66.7 27.8999 66.3V30.5999H41.8999L55.3999 44.0999H137.3L159.2 22.2H199.1C199.7 20.7 201.1 19.5999 202.9 19.5999C205.1 19.5999 206.9 21.3999 206.9 23.5999C206.9 25.7999 205.1 27.5999 202.9 27.5999Z" fill="#707070" fill-opacity="0.5"/>
<path d="M255.5 18.8C253.6 18.8 252 17.5 251.6 15.8H152.7L135 33.4H58.5999L46 20.8H16.7V74.4C18.4 74.8 19.7 76.4 19.7 78.3C19.7 80.5 17.9 82.3 15.7 82.3C13.5 82.3 11.7 80.5 11.7 78.3C11.7 76.4 13 74.8 14.7 74.4V18.8H46.8L59.4 31.4H134.2L151.9 13.7001H251.6C252 12.0001 253.6 10.7001 255.5 10.7001C257.7 10.7001 259.5 12.5001 259.5 14.7001C259.5 16.9 257.7 18.8 255.5 18.8Z" fill="#707070" fill-opacity="0.5"/>
</svg>
