<svg width="630" height="187" viewBox="0 0 630 187" fill="none" xmlns="http://www.w3.org/2000/svg">
<path d="M193 7.99994C191.1 7.99994 189.5 6.69994 189.1 4.99994H146.9L130.4 21.4H65.9L54.3 9.79996H5V141.8C6.7 142.2 8 143.8 8 145.7C8 147.9 6.2 149.7 4 149.7C1.8 149.7 0 147.9 0 145.7C0 143.8 1.3 142.2 3 141.8V7.79996H55.1L66.8 19.4H129.6L146 2.99994H189.1C189.5 1.29994 191.1 -6.10352e-05 193 -6.10352e-05C195.2 -6.10352e-05 197 1.79994 197 3.99994C197 6.19994 195.3 7.99994 193 7.99994Z" fill="#707070" fill-opacity="0.8"/>
<path d="M202.9 27.5999C200.9 27.5999 199.2 26.0999 198.9 24.0999H160L138.1 45.9999H54.5999L41.0999 32.4999H29.8999V178.3C31.5999 178.7 32.8999 180.3 32.8999 182.2C32.8999 184.4 31.0999 186.2 28.8999 186.2C26.6999 186.2 24.8999 184.4 24.8999 182.2C24.8999 180.3 26.1999 178.7 27.8999 178.3V30.5999H41.8999L55.3999 44.0999H137.3L159.2 22.2H199.1C199.7 20.7 201.1 19.5999 202.9 19.5999C205.1 19.5999 206.9 21.3999 206.9 23.5999C206.9 25.7999 205.1 27.5999 202.9 27.5999Z" fill="#707070" fill-opacity="0.8"/>
<path d="M625.5 18.7998C623.6 18.7998 622 17.4998 621.6 15.7998H152.7L135 33.3998H58.5999L46 20.7998H16.7V157.4C18.4 157.8 19.7 159.4 19.7 161.3C19.7 163.5 17.9 165.3 15.7 165.3C13.5 165.3 11.7 163.5 11.7 161.3C11.7 159.4 13 157.8 14.7 157.4V18.7998H46.8L59.4 31.3998H134.2L151.9 13.6998H621.6C622 11.9998 623.6 10.6998 625.5 10.6998C627.7 10.6998 629.5 12.4998 629.5 14.6998C629.5 16.8998 627.7 18.7998 625.5 18.7998Z" fill="#707070" fill-opacity="0.8"/>
</svg>
