<svg width="560" height="188" viewBox="0 0 560 188" fill="none" xmlns="http://www.w3.org/2000/svg">
<path d="M366.5 7.99994C368.4 7.99994 370 6.69994 370.4 4.99994H412.6L429.1 21.4H493.6L505.2 9.79996H554.5V141.8C552.8 142.2 551.5 143.8 551.5 145.7C551.5 147.9 553.3 149.7 555.5 149.7C557.7 149.7 559.5 147.9 559.5 145.7C559.5 143.8 558.2 142.2 556.5 141.8V7.79996H504.4L492.7 19.4H429.9L413.5 2.99994H370.4C370 1.29994 368.4 -6.10352e-05 366.5 -6.10352e-05C364.3 -6.10352e-05 362.5 1.79994 362.5 3.99994C362.5 6.19994 364.2 7.99994 366.5 7.99994Z" fill="#707070" fill-opacity="0.8"/>
<path d="M356.6 27.5999C358.6 27.5999 360.3 26.0999 360.6 24.0999H399.5L421.4 45.9999H504.9L518.4 32.4999H529.6V179.3C527.9 179.7 526.6 181.3 526.6 183.2C526.6 185.4 528.4 187.2 530.6 187.2C532.8 187.2 534.6 185.4 534.6 183.2C534.6 181.3 533.3 179.7 531.6 179.3V30.5999H517.6L504.1 44.0999H422.2L400.3 22.2H360.4C359.8 20.7 358.4 19.5999 356.6 19.5999C354.4 19.5999 352.6 21.3999 352.6 23.5999C352.6 25.7999 354.4 27.5999 356.6 27.5999Z" fill="#707070" fill-opacity="0.8"/>
<path d="M4 18.7998C5.90002 18.7998 7.5 17.4998 7.90002 15.7998H406.8L424.5 33.3998H500.9L513.5 20.7998H542.8V157.4C541.1 157.8 539.8 159.4 539.8 161.3C539.8 163.5 541.6 165.3 543.8 165.3C546 165.3 547.8 163.5 547.8 161.3C547.8 159.4 546.5 157.8 544.8 157.4V18.7998H512.7L500.1 31.3998H425.3L407.6 13.6998H7.90002C7.5 11.9998 5.90002 10.6998 4 10.6998C1.79999 10.6998 0 12.4998 0 14.6998C0 16.8998 1.79999 18.7998 4 18.7998Z" fill="#707070" fill-opacity="0.8"/>
</svg>
