<svg width="310" height="83" viewBox="0 0 310 83" fill="none" xmlns="http://www.w3.org/2000/svg">
<path d="M116.5 7.99995C118.4 7.99995 120 6.69995 120.4 4.99995H162.6L179.1 21.4H243.6L255.2 9.79995H304.5V58.8C302.8 59.2 301.5 60.8 301.5 62.7C301.5 64.9 303.3 66.7 305.5 66.7C307.7 66.7 309.5 64.9 309.5 62.7C309.5 60.8 308.2 59.2 306.5 58.8V7.79995H254.4L242.7 19.4H179.9L163.5 2.99995H120.4C120 1.29995 118.4 -4.57764e-05 116.5 -4.57764e-05C114.3 -4.57764e-05 112.5 1.79995 112.5 3.99995C112.5 6.19995 114.2 7.99995 116.5 7.99995Z" fill="#707070" fill-opacity="0.5"/>
<path d="M106.6 27.5999C108.6 27.5999 110.3 26.0999 110.6 24.0999H149.5L171.4 46H254.9L268.4 32.5H279.6V66.3C277.9 66.7 276.6 68.3 276.6 70.2C276.6 72.4 278.4 74.2 280.6 74.2C282.8 74.2 284.6 72.4 284.6 70.2C284.6 68.3 283.3 66.7 281.6 66.3V30.5999H267.6L254.1 44.0999H172.2L150.3 22.2H110.4C109.8 20.7 108.4 19.5999 106.6 19.5999C104.4 19.5999 102.6 21.3999 102.6 23.5999C102.6 25.7999 104.4 27.5999 106.6 27.5999Z" fill="#707070" fill-opacity="0.5"/>
<path d="M4.00003 18.8C5.90002 18.8 7.50003 17.5 7.90002 15.8H156.8L174.5 33.4H250.9L263.5 20.8H292.8V74.4C291.1 74.8 289.8 76.4 289.8 78.3C289.8 80.5 291.6 82.3 293.8 82.3C296 82.3 297.8 80.5 297.8 78.3C297.8 76.4 296.5 74.8 294.8 74.4V18.8H262.7L250.1 31.4H175.3L157.6 13.7001H7.90002C7.50003 12.0001 5.90002 10.7001 4.00003 10.7001C1.80002 10.7001 3.05176e-05 12.5001 3.05176e-05 14.7001C3.05176e-05 16.9 1.80002 18.8 4.00003 18.8Z" fill="#707070" fill-opacity="0.5"/>
</svg>
