<svg width="243" height="110" viewBox="0 0 243 110" fill="none" xmlns="http://www.w3.org/2000/svg">
<path d="M55.0002 0V16.2885C54.5066 16.2885 53.9425 16.2885 53.4489 16.2885C53.0258 16.2885 52.6028 16.2885 52.1797 16.2885V0H55.0002Z" fill="#21B7D8"/>
<path d="M53.4489 91.5256C53.9425 91.5256 54.5066 91.5256 55.0002 91.5256V110H52.1797V91.4551C52.6028 91.5256 53.0258 91.5256 53.4489 91.5256Z" fill="#21B7D8"/>
<path d="M15.8654 52.1794C15.8654 52.7435 15.7949 53.3076 15.7949 53.8718C15.7949 54.2243 15.7949 54.5769 15.7949 55H0V52.1794H15.8654Z" fill="#21B7D8"/>
<path d="M53.4488 23.5512C70.1604 23.5512 83.8399 37.1602 83.8399 53.9423C83.8399 70.7243 70.2309 84.3333 53.4488 84.3333C36.7373 84.3333 23.0578 70.7243 23.0578 53.9423C23.0578 37.1602 36.6668 23.5512 53.4488 23.5512ZM53.4488 20.7307C35.1155 20.7307 20.2373 35.6089 20.2373 53.9423C20.2373 72.2756 35.1155 87.1538 53.4488 87.1538C71.7822 87.1538 86.6604 72.2756 86.6604 53.9423C86.5899 35.5384 71.7822 20.7307 53.4488 20.7307Z" fill="#21B7D8"/>
<path d="M53.4488 35.5385C63.5321 35.5385 71.7821 43.7885 71.7821 53.8719C71.7821 63.9552 63.5321 72.2052 53.4488 72.2052C43.3654 72.2052 35.1154 63.9552 35.1154 53.8719C35.1154 43.7885 43.2949 35.5385 53.4488 35.5385ZM53.4488 32.718C41.7436 32.718 32.2949 42.1667 32.2949 53.8719C32.2949 65.577 41.7436 75.0257 53.4488 75.0257C65.1539 75.0257 74.6026 65.577 74.6026 53.8719C74.6026 42.1667 65.0834 32.718 53.4488 32.718Z" fill="#21B7D8"/>
<path d="M53.3072 62.4038C58.0316 62.4038 61.7688 58.5961 61.7688 53.9423C61.7688 49.2179 57.9611 45.4807 53.3072 45.4807C48.5829 45.4807 44.8457 49.2884 44.8457 53.9423C44.7752 58.5961 48.5829 62.4038 53.3072 62.4038Z" fill="#21B7D8"/>
<path d="M103.936 58.2435V69.2435H102.385V59.6538H96.0386V69.314H94.4873V58.2435H103.936Z" fill="#21B7D8"/>
<path d="M109.366 68.6795C108.449 68.1859 107.744 67.5513 107.25 66.6346C106.757 65.7884 106.475 64.8013 106.475 63.7436C106.475 62.6859 106.757 61.6987 107.25 60.8525C107.744 60.0064 108.449 59.3013 109.366 58.8077C110.282 58.3141 111.269 58.1025 112.398 58.1025C113.526 58.1025 114.513 58.3141 115.359 58.8077C116.276 59.3013 116.981 59.9359 117.475 60.8525C117.968 61.6987 118.25 62.6859 118.25 63.7436C118.25 64.8013 117.968 65.7884 117.475 66.6346C116.981 67.4807 116.276 68.1859 115.359 68.6795C114.443 69.1731 113.455 69.3846 112.398 69.3846C111.199 69.3846 110.212 69.1731 109.366 68.6795ZM114.513 67.4102C115.148 67.0577 115.641 66.5641 116.064 65.859C116.417 65.2243 116.628 64.5192 116.628 63.6731C116.628 62.8974 116.417 62.1218 116.064 61.4872C115.712 60.8525 115.218 60.3589 114.513 59.9359C113.878 59.5833 113.173 59.3718 112.327 59.3718C111.552 59.3718 110.776 59.5833 110.141 59.9359C109.507 60.2884 108.943 60.782 108.59 61.4872C108.237 62.1218 108.026 62.8269 108.026 63.6731C108.026 64.4487 108.237 65.2243 108.59 65.859C108.943 66.4936 109.507 66.9872 110.141 67.4102C110.776 67.7628 111.552 67.9743 112.327 67.9743C113.173 67.9743 113.878 67.8333 114.513 67.4102Z" fill="#21B7D8"/>
<path d="M130.872 67.9038V71.641H129.391V69.2436H120.366V71.641H118.885V67.9038H119.449C120.154 67.8333 120.648 67.3397 120.93 66.282C121.212 65.2243 121.353 63.7436 121.423 61.8397L121.564 58.3141H129.321V67.9743H130.872V67.9038ZM122.41 65.7884C122.199 66.7756 121.917 67.4808 121.494 67.9038H127.699V59.6538H122.904L122.833 61.9808C122.763 63.4615 122.622 64.8013 122.41 65.7884Z" fill="#21B7D8"/>
<path d="M141.096 64.4487H138.769V69.314H137.218V58.2435H138.769V63.0384H141.096L144.551 58.2435H146.243L142.295 63.6025L146.384 69.2435H144.622L141.096 64.4487Z" fill="#21B7D8"/>
<path d="M149.981 68.6795C149.064 68.1859 148.359 67.5513 147.865 66.6346C147.372 65.7884 147.09 64.8013 147.09 63.7436C147.09 62.6859 147.372 61.6987 147.865 60.8525C148.359 60.0064 149.064 59.3013 149.981 58.8077C150.898 58.3141 151.885 58.1025 153.013 58.1025C154.141 58.1025 155.128 58.3141 155.974 58.8077C156.891 59.3013 157.596 59.9359 158.09 60.8525C158.583 61.6987 158.866 62.6859 158.866 63.7436C158.866 64.8013 158.583 65.7884 158.09 66.6346C157.596 67.4807 156.891 68.1859 155.974 68.6795C155.058 69.1731 154.071 69.3846 153.013 69.3846C151.885 69.3846 150.898 69.1731 149.981 68.6795ZM155.199 67.4102C155.833 67.0577 156.327 66.5641 156.75 65.859C157.103 65.2243 157.314 64.5192 157.314 63.6731C157.314 62.8974 157.103 62.1218 156.75 61.4872C156.398 60.8525 155.904 60.3589 155.199 59.9359C154.564 59.5833 153.859 59.3718 153.013 59.3718C152.237 59.3718 151.462 59.5833 150.827 59.9359C150.192 60.2884 149.628 60.782 149.276 61.4872C148.923 62.1218 148.712 62.8269 148.712 63.6731C148.712 64.4487 148.923 65.2243 149.276 65.859C149.628 66.4936 150.192 66.9872 150.827 67.4102C151.462 67.7628 152.237 67.9743 153.013 67.9743C153.789 67.9743 154.564 67.8333 155.199 67.4102Z" fill="#21B7D8"/>
<path d="M170.853 58.2435V69.2435H169.302V64.3076H162.956V69.2435H161.404V58.2435H162.956V62.9679H169.302V58.2435H170.853Z" fill="#21B7D8"/>
<path d="M181.853 59.6538H178.116V69.3141H176.565V59.6538H172.757V58.3141H181.853V59.6538Z" fill="#21B7D8"/>
<path d="M191.371 59.3012C192.218 60.0064 192.57 60.923 192.57 62.1217C192.57 63.3205 192.147 64.2371 191.371 64.9422C190.525 65.6474 189.468 65.9294 187.987 65.9294H185.237V69.2435H183.686V58.2435H187.987C189.468 58.2435 190.596 58.5961 191.371 59.3012ZM190.243 63.9551C190.737 63.532 191.019 62.8974 191.019 62.1217C191.019 61.3461 190.737 60.7115 190.243 60.2884C189.75 59.8653 188.974 59.6538 187.987 59.6538H185.307V64.5897H187.987C188.974 64.5897 189.75 64.3781 190.243 63.9551Z" fill="#21B7D8"/>
<path d="M196.943 68.6795C196.026 68.1859 195.321 67.5513 194.827 66.6346C194.334 65.7884 194.052 64.8013 194.052 63.7436C194.052 62.6859 194.334 61.6987 194.827 60.8525C195.321 60.0064 196.026 59.3013 196.943 58.8077C197.859 58.3141 198.847 58.1025 199.975 58.1025C201.103 58.1025 202.09 58.3141 202.936 58.8077C203.853 59.3013 204.558 59.9359 205.052 60.8525C205.545 61.7692 205.827 62.6859 205.827 63.7436C205.827 64.8013 205.545 65.7884 205.052 66.6346C204.558 67.4807 203.853 68.1859 202.936 68.6795C202.02 69.1731 201.033 69.3846 199.975 69.3846C198.776 69.3846 197.789 69.1731 196.943 68.6795ZM202.09 67.4102C202.725 67.0577 203.218 66.5641 203.642 65.859C203.994 65.2243 204.206 64.5192 204.206 63.6731C204.206 62.8974 203.994 62.1218 203.642 61.4872C203.289 60.8525 202.795 60.3589 202.09 59.9359C201.456 59.5833 200.75 59.3718 199.904 59.3718C199.129 59.3718 198.353 59.5833 197.718 59.9359C197.084 60.2884 196.52 60.782 196.167 61.4872C195.815 62.1218 195.603 62.8269 195.603 63.6731C195.603 64.4487 195.815 65.2243 196.167 65.859C196.52 66.4936 197.084 66.9872 197.718 67.4102C198.353 67.7628 199.129 67.9743 199.904 67.9743C200.75 67.9743 201.456 67.8333 202.09 67.4102Z" fill="#21B7D8"/>
<path d="M216.968 58.2436V69.2436H215.417V59.6539H210.552L210.411 62.8975C210.34 64.4487 210.199 65.6475 210.058 66.5641C209.847 67.4808 209.564 68.1859 209.141 68.6795C208.718 69.1731 208.154 69.3846 207.449 69.3846C207.097 69.3846 206.814 69.3141 206.462 69.2436L206.603 67.8334C206.744 67.9039 206.956 67.9039 207.097 67.9039C207.52 67.9039 207.943 67.6923 208.154 67.3398C208.436 66.9872 208.648 66.4231 208.789 65.718C208.93 65.0128 209 64.0257 209.071 62.8269L209.212 58.1731H216.968V58.2436Z" fill="#21B7D8"/>
<path d="M228.391 67.9038V69.2435H220.423V58.2435H228.179V59.5833H221.974V62.9679H227.474V64.3076H221.974V67.8333H228.391V67.9038Z" fill="#21B7D8"/>
<path d="M241.083 69.2435V61.2051L237.135 67.9038H236.429L232.481 61.2756V69.2435H231V58.2435H232.269L236.853 65.9999L241.365 58.2435H242.635V69.2435H241.083Z" fill="#21B7D8"/>
<path d="M94.4873 38.5H103.442V39.9103H96.1796V43.2949H99.8463C101.257 43.2949 102.314 43.5769 103.09 44.141C103.795 44.7051 104.218 45.5513 104.218 46.6795C104.218 47.8077 103.795 48.7244 103.019 49.359C102.244 49.9936 101.116 50.2756 99.6347 50.2756H94.4873V38.5ZM99.4937 49.0064C100.481 49.0064 101.186 48.7949 101.68 48.4423C102.173 48.0897 102.455 47.5256 102.455 46.8205C102.455 45.4103 101.468 44.7051 99.4937 44.7051H96.1796V49.0769H99.4937V49.0064Z" fill="#21B7D8"/>
<path d="M115.5 48.8654V50.3462H106.897V38.5H115.288V39.9808H108.59V43.6474H114.513V45.0577H108.59V48.8654H115.5Z" fill="#21B7D8"/>
<path d="M125.584 45.2692C126.007 45.7628 126.219 46.3974 126.219 47.1025C126.219 47.8076 126.007 48.4423 125.584 48.9358C125.161 49.4294 124.526 49.8525 123.821 50.1346C123.116 50.4166 122.27 50.5576 121.424 50.5576C120.648 50.5576 119.872 50.4166 119.097 50.2051C118.321 49.9935 117.616 49.641 116.981 49.1474L117.546 47.8782C118.039 48.3012 118.674 48.5833 119.308 48.7948C119.943 49.0064 120.578 49.0769 121.283 49.0769C122.199 49.0769 123.046 48.8653 123.68 48.4423C124.315 48.0192 124.667 47.5256 124.667 46.8205C124.667 46.2564 124.456 45.7628 123.962 45.4102C123.469 45.0576 122.763 44.9166 121.917 44.9166H119.308V43.5769H121.847C122.622 43.5769 123.187 43.4358 123.61 43.0833C124.033 42.8012 124.244 42.3076 124.244 41.814C124.244 41.1794 123.962 40.6858 123.398 40.3333C122.834 39.9807 122.129 39.7692 121.283 39.7692C120.719 39.7692 120.155 39.8397 119.59 39.9807C119.026 40.1217 118.462 40.4038 117.969 40.6858L117.405 39.2756C117.969 38.923 118.603 38.7115 119.308 38.4999C119.943 38.3589 120.648 38.2179 121.283 38.2179C122.129 38.2179 122.905 38.3589 123.61 38.641C124.315 38.923 124.879 39.2756 125.302 39.7692C125.725 40.2628 125.937 40.8269 125.937 41.532C125.937 42.0961 125.796 42.6602 125.443 43.0833C125.09 43.5064 124.667 43.8589 124.033 44.0705C124.597 44.423 125.161 44.7756 125.584 45.2692Z" fill="#21B7D8"/>
<path d="M131.154 49.7115C130.167 49.2179 129.462 48.4422 128.898 47.5256C128.334 46.6089 128.052 45.5512 128.052 44.423C128.052 43.2948 128.334 42.2371 128.898 41.3204C129.462 40.4038 130.167 39.6986 131.154 39.1345C132.141 38.5704 133.199 38.3589 134.398 38.3589C135.597 38.3589 136.654 38.6409 137.641 39.1345C138.629 39.6281 139.334 40.4038 139.898 41.3204C140.462 42.2371 140.744 43.2948 140.744 44.423C140.744 45.5512 140.462 46.6089 139.898 47.5256C139.334 48.4422 138.629 49.1473 137.641 49.7115C136.654 50.205 135.597 50.4871 134.398 50.4871C133.199 50.4871 132.141 50.2756 131.154 49.7115ZM136.725 48.3717C137.43 47.9486 137.994 47.455 138.347 46.7499C138.77 46.0448 138.981 45.2691 138.981 44.423C138.981 43.5768 138.77 42.8012 138.347 42.0961C137.924 41.3909 137.43 40.8268 136.725 40.4743C136.02 40.0512 135.244 39.9102 134.398 39.9102C133.552 39.9102 132.776 40.1217 132.071 40.4743C131.366 40.8973 130.802 41.3909 130.379 42.0961C129.956 42.8012 129.744 43.5768 129.744 44.423C129.744 45.2691 129.956 46.0448 130.379 46.7499C130.802 47.455 131.366 48.0191 132.071 48.3717C132.776 48.7948 133.552 48.9358 134.398 48.9358C135.244 48.9358 136.09 48.7948 136.725 48.3717Z" fill="#21B7D8"/>
<path d="M153.647 38.5V50.3462H151.955V39.9808H145.115V50.3462H143.423V38.5H153.647Z" fill="#21B7D8"/>
<path d="M165.07 47.3846H158.795L157.526 50.3462H155.763L161.122 38.5H162.814L168.173 50.3462H166.41L165.07 47.3846ZM164.506 46.0449L161.968 40.2628L159.429 46.0449H164.506Z" fill="#21B7D8"/>
<path d="M172.192 49.7115C171.205 49.2179 170.5 48.4422 169.936 47.5256C169.372 46.6089 169.09 45.5512 169.09 44.423C169.09 43.2948 169.372 42.2371 169.936 41.3204C170.5 40.4038 171.205 39.6986 172.192 39.1345C173.18 38.6409 174.237 38.3589 175.436 38.3589C176.353 38.3589 177.199 38.4999 177.974 38.8525C178.75 39.1345 179.385 39.6281 179.949 40.2627L178.821 41.3204C177.904 40.4038 176.846 39.9102 175.507 39.9102C174.66 39.9102 173.814 40.1217 173.109 40.4743C172.404 40.8973 171.84 41.3909 171.417 42.0961C170.994 42.8012 170.782 43.5768 170.782 44.423C170.782 45.2691 170.994 46.0448 171.417 46.7499C171.84 47.455 172.404 48.0191 173.109 48.3717C173.814 48.7948 174.59 48.9358 175.507 48.9358C176.846 48.9358 177.904 48.4422 178.821 47.5256L179.949 48.5832C179.385 49.2179 178.75 49.6409 177.974 49.9935C177.199 50.2756 176.353 50.4871 175.436 50.4871C174.167 50.4871 173.109 50.2756 172.192 49.7115Z" fill="#21B7D8"/>
<path d="M192.429 38.5V50.3462H190.737V45.0577H183.968V50.3462H182.275V38.5H183.968V43.5769H190.737V38.5H192.429Z" fill="#21B7D8"/>
<path d="M198.282 49.7115C197.295 49.2179 196.59 48.4422 196.026 47.5256C195.462 46.6089 195.18 45.5512 195.18 44.423C195.18 43.2948 195.462 42.2371 196.026 41.3204C196.59 40.4038 197.295 39.6986 198.282 39.1345C199.269 38.6409 200.327 38.3589 201.526 38.3589C202.725 38.3589 203.782 38.6409 204.769 39.1345C205.757 39.6281 206.462 40.4038 207.026 41.3204C207.59 42.2371 207.872 43.2948 207.872 44.423C207.872 45.5512 207.59 46.6089 207.026 47.5256C206.462 48.4422 205.757 49.1473 204.769 49.7115C203.782 50.205 202.725 50.4871 201.526 50.4871C200.327 50.4871 199.199 50.2756 198.282 49.7115ZM203.853 48.3717C204.558 47.9486 205.122 47.455 205.475 46.7499C205.898 46.0448 206.109 45.2691 206.109 44.423C206.109 43.5768 205.898 42.8012 205.475 42.0961C205.051 41.3909 204.558 40.8268 203.853 40.4743C203.148 40.0512 202.372 39.9102 201.526 39.9102C200.68 39.9102 199.904 40.1217 199.199 40.4743C198.494 40.8973 197.93 41.3909 197.507 42.0961C197.084 42.8012 196.872 43.5768 196.872 44.423C196.872 45.2691 197.084 46.0448 197.507 46.7499C197.93 47.455 198.494 48.0191 199.199 48.3717C199.904 48.7948 200.68 48.9358 201.526 48.9358C202.372 48.9358 203.148 48.7948 203.853 48.3717Z" fill="#21B7D8"/>
<path d="M212.667 49.7115C211.68 49.2179 210.975 48.4422 210.411 47.5256C209.846 46.6089 209.564 45.5512 209.564 44.423C209.564 43.2948 209.846 42.2371 210.411 41.3204C210.975 40.4038 211.68 39.6986 212.667 39.1345C213.654 38.6409 214.712 38.3589 215.911 38.3589C216.827 38.3589 217.673 38.4999 218.449 38.8525C219.225 39.1345 219.859 39.6281 220.423 40.2627L219.295 41.3204C218.379 40.4038 217.321 39.9102 215.981 39.9102C215.135 39.9102 214.289 40.1217 213.584 40.4743C212.879 40.8973 212.314 41.3909 211.891 42.0961C211.468 42.8012 211.257 43.5768 211.257 44.423C211.257 45.2691 211.468 46.0448 211.891 46.7499C212.314 47.455 212.879 48.0191 213.584 48.3717C214.289 48.7948 215.064 48.9358 215.981 48.9358C217.321 48.9358 218.379 48.4422 219.295 47.5256L220.423 48.5832C219.859 49.2179 219.225 49.6409 218.449 49.9935C217.673 50.2756 216.827 50.4871 215.911 50.4871C214.641 50.4871 213.584 50.2756 212.667 49.7115Z" fill="#21B7D8"/>
<path d="M230.718 39.9808H226.629V50.3462H224.936V39.9808H220.917V38.5H230.648V39.9808H230.718Z" fill="#21B7D8"/>
<path d="M241.295 43.5769C242.071 44.2115 242.424 45.1282 242.424 46.3974C242.424 47.6667 242 48.6538 241.225 49.359C240.449 50.0641 239.25 50.3462 237.77 50.3462H232.904V38.5H234.597V42.6603H238.122C239.462 42.6603 240.52 42.9423 241.295 43.5769ZM239.956 48.3718C240.449 47.9487 240.731 47.3141 240.731 46.468C240.731 44.8462 239.744 44 237.699 44H234.526V49.0769H237.699C238.686 49.0064 239.391 48.7949 239.956 48.3718Z" fill="#21B7D8"/>
<path d="M22.4935 89.1281C23.6922 89.1281 24.6794 88.141 24.6794 86.9422C24.6794 85.7435 23.6922 84.7563 22.4935 84.7563C21.2948 84.7563 20.3076 85.7435 20.3076 86.9422C20.3076 88.141 21.2243 89.1281 22.4935 89.1281Z" fill="#DB0404"/>
</svg>
